<?xml version="1.0" standalone="no"?><svg xmlns="http://www.w3.org/2000/svg" viewBox="0 0 1440 320"><path fill="#F1EB9C" fill-opacity="1" d="M0,64L30,101.3C60,139,120,213,180,256C240,299,300,309,360,298.7C420,288,480,256,540,250.7C600,245,660,267,720,256C780,245,840,203,900,186.7C960,171,1020,181,1080,160C1140,139,1200,85,1260,90.7C1320,96,1380,160,1410,192L1440,224L1440,0L1410,0C1380,0,1320,0,1260,0C1200,0,1140,0,1080,0C1020,0,960,0,900,0C840,0,780,0,720,0C660,0,600,0,540,0C480,0,420,0,360,0C300,0,240,0,180,0C120,0,60,0,30,0L0,0Z"></path></svg>
