<svg xmlns="http://www.w3.org/2000/svg" width="70" height="70" viewBox="0 0 70 70" style="width: 100%; height: 100%;"><desc>Made with illustrio</desc>
  
<g class="base"><g fill="none" fill-rule="evenodd" stroke="none" class="main-fill">
    
    <path fill="none" d="M19.1360909,14.6363636 L28.5854545,5.187 C28.8342727,4.93818182 28.8342727,4.536 28.5854545,4.28718182 L24.9861818,0.687272727 C24.8665455,0.567636364 24.7055455,0.500818182 24.5362727,0.500818182 C24.367,0.500818182 24.2053636,0.567636364 24.0863636,0.687272727 L14.6363636,10.1366364 L5.187,0.687272727 C4.94836364,0.448636364 4.52581818,0.448636364 4.28718182,0.687272727 L0.687272727,4.28718182 C0.567636364,4.40681818 0.500818182,4.56845455 0.500818182,4.73709091 C0.500818182,4.90572727 0.567636364,5.068 0.687272727,5.187 L10.1366364,14.6363636 L0.687272727,24.0863636 C0.567636364,24.206 0.500818182,24.367 0.500818182,24.5362727 C0.500818182,24.7055455 0.567636364,24.8671818 0.687272727,24.9861818 L4.28718182,28.5854545 C4.41127273,28.7095455 4.57418182,28.7719091 4.73709091,28.7719091 C4.9,28.7719091 5.06290909,28.7095455 5.187,28.5854545 L14.6363636,19.1360909 L24.0863636,28.5854545 C24.3351818,28.8342727 24.7373636,28.8342727 24.9861818,28.5854545 L28.5854545,24.9861818 C28.8342727,24.7373636 28.8342727,24.3351818 28.5854545,24.0863636 L19.1360909,14.6363636 L19.1360909,14.6363636 Z" transform="translate(20.364 20.364)" stroke="none" class="main-fill"></path>
  </g></g><style>
          .main-fill {fill: #030000;}
          .main-stroke {stroke: #030000;}
          .secondary-fill {fill: #96a0a1;}
          .secondary-stroke {stroke: #96a0a1;}

          .main-fill--darken {fill: #000000;}
          .main-stroke--darken {stroke: #000000;}
          .secondary-fill--darken {fill: #6f7b7c;}
          .secondary-stroke--darken {stroke: #6f7b7c;}

          .main-fill--darkener {fill: #000000;}
          .main-stroke--darkener {stroke: #000000;}
          .secondary-fill--darkener {fill: #576061;}
          .secondary-stroke--darkener {stroke: #576061;}
        </style></svg>