<svg xmlns="http://www.w3.org/2000/svg" width="70" height="70" viewBox="0 0 70 70" style="width: 100%; height: 100%;"><desc>Made with illustrio</desc>

<g class="shadow"><g fill="none" fill-rule="evenodd" stroke="none">

    <path fill="none" d="M27.8929583,4.65465 C27.8929583,2.20820833 25.6870833,0 23.2406417,0 L4.64765,0 C2.20704167,0 0,2.20820833 0,4.65465 L0,23.2406417 C0,25.6894167 2.20704167,27.8929583 4.64765,27.8929583 L13.94645,27.8929583 L13.94645,17.3552167 L10.5400167,17.3552167 L10.5400167,12.7087333 L13.94645,12.7087333 L13.94645,10.895675 C13.94645,7.77513333 16.2918,4.96031667 19.1763833,4.96031667 L22.934975,4.96031667 L22.934975,9.61263333 L19.1763833,9.61263333 C18.7672917,9.61263333 18.2826583,10.108875 18.2826583,10.85735 L18.2826583,12.7099 L22.9361417,12.7099 L22.9361417,17.3563833 L18.2826583,17.3563833 L18.2826583,27.8929583 L23.2406417,27.8929583 C25.6870833,27.8929583 27.8929583,25.6894167 27.8929583,23.2406417 L27.8929583,4.65465 L27.8929583,4.65465 Z" transform="translate(21 21)" stroke="none"></path>
  </g></g><g class="clone"><g fill="none" fill-rule="evenodd" stroke="none" style="stroke-width: 2;" class="main-fill main-stroke">

    <path fill="none" d="M27.8929583,4.65465 C27.8929583,2.20820833 25.6870833,0 23.2406417,0 L4.64765,0 C2.20704167,0 0,2.20820833 0,4.65465 L0,23.2406417 C0,25.6894167 2.20704167,27.8929583 4.64765,27.8929583 L13.94645,27.8929583 L13.94645,17.3552167 L10.5400167,17.3552167 L10.5400167,12.7087333 L13.94645,12.7087333 L13.94645,10.895675 C13.94645,7.77513333 16.2918,4.96031667 19.1763833,4.96031667 L22.934975,4.96031667 L22.934975,9.61263333 L19.1763833,9.61263333 C18.7672917,9.61263333 18.2826583,10.108875 18.2826583,10.85735 L18.2826583,12.7099 L22.9361417,12.7099 L22.9361417,17.3563833 L18.2826583,17.3563833 L18.2826583,27.8929583 L23.2406417,27.8929583 C25.6870833,27.8929583 27.8929583,25.6894167 27.8929583,23.2406417 L27.8929583,4.65465 L27.8929583,4.65465 Z" transform="translate(21 21)" stroke="none" class="secondary-fill"></path>
  </g></g><style>
          .main-fill {fill: #000000;}
          .main-stroke {stroke: #000000;}
          .secondary-fill {fill: #000000;}
          .secondary-stroke {stroke: #000000;}

          .main-fill--darken {fill: #d9d9d9;}
          .main-stroke--darken {stroke: #d9d9d9;}
          .secondary-fill--darken {fill: #000000;}
          .secondary-stroke--darken {stroke: #000000;}

          .main-fill--darkener {fill: #bfbfbf;}
          .main-stroke--darkener {stroke: #bfbfbf;}
          .secondary-fill--darkener {fill: #000000;}
          .secondary-stroke--darkener {stroke: #000000;}
        </style></svg>
