<?xml version="1.0" encoding="utf-8"?>
<!-- Generator: Adobe Illustrator 24.1.2, SVG Export Plug-In . SVG Version: 6.00 Build 0)  -->
<svg version="1.1" xmlns="http://www.w3.org/2000/svg" xmlns:xlink="http://www.w3.org/1999/xlink" x="0px" y="0px"
	 viewBox="0 0 1417.32 1417.32" style="enable-background:new 0 0 1417.32 1417.32;" xml:space="preserve">
<style type="text/css">
	.st0{display:none;}
	.st1{display:inline;}
	.st2{fill:#5FCCF5;stroke:#21409A;stroke-width:6.384;stroke-miterlimit:10;}
	.st3{fill:#FFFFFF;stroke:#21409A;stroke-width:6.384;stroke-miterlimit:10;}
	.st4{fill:none;stroke:#21409A;stroke-width:6.384;stroke-miterlimit:10;}
	.st5{fill:#FFFFFF;stroke:#21409A;stroke-width:6.384;stroke-linecap:round;stroke-linejoin:round;stroke-miterlimit:10;}
	.st6{fill:none;stroke:#21409A;stroke-width:6.384;stroke-linecap:round;stroke-linejoin:round;stroke-miterlimit:10;}
	.st7{fill:#FFFFFF;stroke:#21409A;stroke-width:6.384;stroke-linejoin:round;stroke-miterlimit:10;}
	.st8{fill:#5FCCF5;stroke:#21409A;stroke-width:6.384;stroke-linecap:round;stroke-linejoin:round;stroke-miterlimit:10;}
	.st9{fill:#FDBC5A;stroke:#000000;stroke-width:6.384;stroke-miterlimit:10;}
	.st10{fill:#FFFFFF;stroke:#000000;stroke-width:6.384;stroke-miterlimit:10;}
	.st11{fill:#5FCCF5;stroke:#000000;stroke-width:6.384;stroke-miterlimit:10;}
	.st12{fill:#F79051;stroke:#000000;stroke-width:6.384;stroke-miterlimit:10;}
	.st13{fill:none;stroke:#000000;stroke-width:6.384;stroke-miterlimit:10;}
</style>
<g id="Capa_1" class="st0">
	<g class="st1">
		<g>
			<path class="st2" d="M780.26,1466.88c0,7.59-6.15,13.74-13.75,13.74H648.81c-7.59,0-13.75-6.15-13.75-13.74v-225.87
				c0-7.59,6.16-13.74,13.75-13.74h117.71c7.59,0,13.75,6.15,13.75,13.74V1466.88z"/>
			<rect x="635.06" y="1253.33" class="st3" width="145.2" height="201.24"/>
			<g>
				<line class="st3" x1="682.59" y1="1240.81" x2="717.56" y2="1240.81"/>
				<line class="st3" x1="722.18" y1="1240.81" x2="732.73" y2="1240.81"/>
			</g>
			<polyline class="st3" points="653.15,1383.36 653.15,1439.42 707.66,1439.42 			"/>
			<g>
				<path class="st2" d="M743.14,1358.35l7.3-0.55l-1.07-14.09l-7.21,0.55c-1.08-3.95-2.82-7.62-5.1-10.9l4.95-5.19l-10.22-9.75
					l-4.92,5.14c-3.65-2.33-7.75-4.02-12.16-4.9v-7.08H700.6v7.08c-5.55,1.11-10.63,3.5-14.92,6.86l-5.39-4.67l-9.26,10.67
					l5.43,4.71c-2.27,4.02-3.77,8.53-4.33,13.32l-7.24,0.55l1.05,14.08l7.33-0.55c1.12,3.89,2.88,7.51,5.15,10.73l-5.11,5.36
					l10.22,9.75l5.15-5.41c3.6,2.26,7.62,3.89,11.93,4.76v7.49h14.12v-7.49c5.44-1.09,10.43-3.41,14.68-6.67l5.63,4.88l9.27-10.66
					l-5.58-4.85C740.99,1367.55,742.52,1363.1,743.14,1358.35z M707.66,1365.19c-6.21,0-11.24-5.04-11.24-11.24
					c0-6.21,5.03-11.24,11.24-11.24c6.21,0,11.24,5.04,11.24,11.24C718.9,1360.15,713.87,1365.19,707.66,1365.19z"/>
				<path class="st3" d="M718.9,1353.95c0,6.2-5.03,11.24-11.24,11.24c-6.21,0-11.24-5.04-11.24-11.24
					c0-6.21,5.03-11.24,11.24-11.24C713.87,1342.71,718.9,1347.74,718.9,1353.95z"/>
				<path class="st4" d="M707.66,1383.36"/>
			</g>
		</g>
		<g>
			<path class="st4" d="M1262.91,1375.57l1.14-34.94l-21.19-0.7c-1.28-7.25-3.29-14.25-5.93-20.93l19.42-10.66l-16.81-30.65
				l-20.66,11.34c-4.45-5.24-9.39-10.04-14.76-14.34l12.34-20.85l-30.08-17.81l-12.73,21.5c-6.18-2.25-12.63-3.92-19.28-5.01v-25.26
				h-34.96v25.26c-5.05,0.82-9.98,1.98-14.77,3.48l-11.76-22.13l-30.87,16.41l11.42,21.5c-4.98,3.64-9.63,7.71-13.91,12.13
				l-20.08-12.79l-18.79,29.48l18.92,12.05c-3.07,6.46-5.5,13.28-7.23,20.36l-21.49-0.71l-1.15,34.95l19.94,0.65
				c0.66,7.78,2.11,15.32,4.34,22.54l-16.57,9.09l16.82,30.65l15.39-8.45c4.73,6.55,10.18,12.53,16.23,17.86l-8.55,14.44
				l30.09,17.81l8.12-13.71c7.56,3.15,15.57,5.45,23.89,6.82v15.66h34.96v-15.66c6.58-1.08,12.96-2.73,19.09-4.95l7.44,13.99
				l30.87-16.41l-7.8-14.69c5.77-4.6,11.07-9.77,15.78-15.45l14.58,9.29l18.78-29.49l-15.69-10c2.73-7.12,4.75-14.59,5.92-22.35
				L1262.91,1375.57z"/>
			<path class="st2" d="M1136.88,1277.52c-42.21,0-76.43,34.21-76.43,76.43c0,42.21,34.21,76.42,76.43,76.42
				c42.21,0,76.43-34.21,76.43-76.42C1213.3,1311.74,1179.08,1277.52,1136.88,1277.52z M1136.88,1406.29
				c-28.91,0-52.34-23.44-52.34-52.34c0-28.91,23.43-52.34,52.34-52.34c28.9,0,52.33,23.43,52.33,52.34
				C1189.21,1382.84,1165.78,1406.29,1136.88,1406.29z"/>
			<path class="st4" d="M1227.8,1353.95c0,50.21-40.71,90.92-90.93,90.92"/>
		</g>
		<g>
			<path class="st4" d="M297,368.85h-39.05l-13.35,19.98H233.7l-6.92-7.84h-15.3v36.79h16.82l3.1-7.64h8.77
				c0,0,17.76,3.23,21.43,26.32h38.36l6.73-23.39c9.66-26.51,37.07,3.11,37.07,3.11l1.66-1.07C334.72,370.25,297,368.85,297,368.85z
				"/>
			<rect x="261.6" y="436.45" class="st4" width="38.15" height="26.07"/>
			<rect x="272.46" y="462.52" class="st4" width="16.44" height="56.26"/>
			<g>
				<path class="st2" d="M308.21,622.2c-1.28-10.54-8.46-12.45-8.46-12.45v-80.45c-0.47-10.21-6.78-10.53-6.78-10.53h-12.29h-12.29
					c0,0-6.31,0.32-6.79,10.53v80.45c0,0-7.17,1.91-8.45,12.45H308.21z"/>
			</g>
			<path class="st4" d="M246.02,400.7c0,0,21.17,1.95,24.79,26.07"/>
		</g>
		<g>
			<path class="st4" d="M1580.58-55.82v33.38h-29v-33.38c-12.89,5.6-21.9,18.44-21.9,33.38c0,20.11,16.3,36.4,36.4,36.4
				c20.09,0,36.39-16.3,36.39-36.4C1602.48-37.38,1593.47-50.22,1580.58-55.82z"/>
			<path class="st4" d="M1590.65-24.49c-0.36,14.71-12.56,26.36-27.28,26.01"/>
			<rect x="1559.27" y="13.31" class="st4" width="13.73" height="39.23"/>
			<path class="st2" d="M1579.81,60.83v116.85c0,12.11-13.71,10.73-13.71,10.73c-13.72,0.23-13.72-10.73-13.72-10.73V60.83
				c0,0,0.41-10.21,13.72-9.89C1566.09,50.93,1578.31,49.98,1579.81,60.83z"/>
			<path class="st3" d="M1569.84,162.26c0,2.08-1.68,3.77-3.75,3.77l0,0c-2.09,0-3.77-1.68-3.77-3.77V74.01
				c0-2.08,1.68-3.77,3.77-3.77l0,0c2.07,0,3.75,1.69,3.75,3.77V162.26z"/>
		</g>
		<g>
			<path class="st4" d="M-61.62,1467.46c0,7.27-5.89,13.16-13.16,13.16h-151.95c-7.27,0-13.16-5.89-13.16-13.16v-227.03
				c0-7.27,5.89-13.16,13.16-13.16h151.95c7.27,0,13.16,5.89,13.16,13.16V1467.46z"/>
			<g>
				<rect x="-219.71" y="1257.76" class="st2" width="137.9" height="30.64"/>
				<rect x="-219.71" y="1306.28" class="st4" width="137.9" height="11.07"/>
				<g>
					<g>
						<rect x="-205.84" y="1338.65" class="st2" width="25.55" height="25.55"/>
						<rect x="-163.54" y="1338.65" class="st2" width="25.55" height="25.55"/>
						<rect x="-121.23" y="1338.65" class="st2" width="25.55" height="25.55"/>
					</g>
					<g>
						<rect x="-205.84" y="1381.61" class="st2" width="25.55" height="25.56"/>
						<rect x="-163.54" y="1381.61" class="st2" width="25.55" height="25.56"/>
						<rect x="-121.23" y="1381.61" class="st2" width="25.55" height="25.56"/>
					</g>
					<g>
						<rect x="-205.84" y="1424.58" class="st2" width="25.55" height="25.56"/>
						<rect x="-163.54" y="1424.58" class="st2" width="25.55" height="25.56"/>
						<rect x="-121.23" y="1424.58" class="st2" width="25.55" height="25.56"/>
					</g>
				</g>
			</g>
			<path class="st4" d="M-78.29,1379.11v72.68c0,7.27-5.89,13.16-13.16,13.16h-43.54"/>
		</g>
		<g>
			<path class="st2" d="M-277.43,1051.42h253.35V798.06L-277.43,1051.42z M-71.46,1004.31h-94.24l94.24-94.23V1004.31z"/>
			<g>
				<line class="st2" x1="-246.39" y1="1038.24" x2="-246.39" y2="1051.42"/>
				<line class="st2" x1="-230.43" y1="1038.24" x2="-230.43" y2="1051.42"/>
				<line class="st2" x1="-214.47" y1="1038.24" x2="-214.47" y2="1051.42"/>
				<line class="st2" x1="-198.51" y1="1038.24" x2="-198.51" y2="1051.42"/>
				<line class="st2" x1="-182.55" y1="1038.24" x2="-182.55" y2="1051.42"/>
				<line class="st2" x1="-166.59" y1="1038.24" x2="-166.59" y2="1051.42"/>
				<line class="st2" x1="-150.63" y1="1038.24" x2="-150.63" y2="1051.42"/>
				<line class="st2" x1="-134.67" y1="1038.24" x2="-134.67" y2="1051.42"/>
				<line class="st2" x1="-118.71" y1="1038.24" x2="-118.71" y2="1051.42"/>
				<line class="st2" x1="-102.75" y1="1038.24" x2="-102.75" y2="1051.42"/>
				<line class="st2" x1="-86.79" y1="1038.24" x2="-86.79" y2="1051.42"/>
				<line class="st2" x1="-70.83" y1="1038.24" x2="-70.83" y2="1051.42"/>
				<line class="st2" x1="-54.87" y1="1038.24" x2="-54.87" y2="1051.42"/>
				<line class="st2" x1="-38.91" y1="1038.24" x2="-38.91" y2="1051.42"/>
			</g>
		</g>
		<g>
			<g>
				<path class="st2" d="M405.13,973.02c0,7.33-5.94,13.26-13.26,13.26H165.04c-7.33,0-13.26-5.93-13.26-13.26V829.08
					c0-7.33,5.93-13.27,13.26-13.27h226.83c7.32,0,13.26,5.94,13.26,13.27V973.02z"/>
				<rect x="166.79" y="831.24" class="st5" width="223.33" height="139.62"/>
				<rect x="254.51" y="986.28" class="st2" width="47.89" height="35.89"/>
				<path class="st5" d="M318.15,1022.17h-16.29h-23.41h-23.41h-16.29c0,0-10.33,0-11.42,11.5h51.12h51.12
					C328.49,1022.17,318.15,1022.17,318.15,1022.17z"/>
			</g>
			<polyline class="st4" points="182.42,887.47 182.42,956.42 243.7,956.42 			"/>
			<g>
				<path class="st4" d="M322.07,901.59c0-1.32-0.07-2.63-0.18-3.92l8.74-2.29l-3.92-14.96l-8.91,2.33
					c-1.88-3.91-4.32-7.5-7.23-10.66l5.72-7.41l-12.25-9.45l-5.79,7.5c-3.74-1.91-7.8-3.29-12.07-4.05v-9.54h-15.47v9.54
					c-4.06,0.72-7.92,2-11.51,3.77l-5.68-7.59l-12.38,9.28l5.61,7.5c-2.14,2.27-4.03,4.74-5.66,7.42l-8.69-3.2l-5.35,14.52
					l8.53,3.14c-0.5,2.62-0.76,5.32-0.76,8.08c0,0.96,0.04,1.91,0.1,2.85l-8.65,2.27l3.91,14.96l8.46-2.21
					c1.84,4.08,4.28,7.83,7.21,11.13l-5.26,6.82l12.25,9.45l5.18-6.71c3.91,2.07,8.17,3.57,12.68,4.37v8.43h15.47v-8.43
					c4.29-0.77,8.35-2.16,12.11-4.08l5.08,6.79l12.38-9.28l-5.16-6.89c2.19-2.38,4.11-5.01,5.72-7.83l8.17,3l5.34-14.52l-8.33-3.07
					C321.87,906.35,322.07,904,322.07,901.59z M278.45,930.75c-16.41,0-29.71-13.3-29.71-29.7c0-16.4,13.3-29.71,29.71-29.71
					c16.4,0,29.7,13.3,29.7,29.71C308.15,917.45,294.86,930.75,278.45,930.75z"/>
			</g>
		</g>
		<g>
			<path class="st3" d="M1242.95,937.91l21.82-1.64l-3.18-42.12l-21.56,1.63c-3.24-11.8-8.44-22.79-15.24-32.59l14.8-15.52
				l-30.55-29.16l-14.69,15.4c-10.94-6.98-23.21-12.05-36.37-14.68v-21.18h-42.23v21.18c-16.58,3.32-31.77,10.49-44.63,20.51
				l-16.1-13.97l-27.68,31.91l16.24,14.07c-6.77,12.02-11.27,25.48-12.94,39.82l-21.67,1.63l3.17,42.12l21.9-1.65
				c3.34,11.63,8.59,22.45,15.4,32.1l-15.3,16.04l30.55,29.15l15.41-16.14c10.75,6.75,22.77,11.64,35.64,14.22v22.38h42.23v-22.38
				c16.27-3.25,31.2-10.21,43.89-19.94l16.84,14.61l27.68-31.91l-16.7-14.48C1236.53,965.43,1241.13,952.11,1242.95,937.91z
				 M1136.87,958.35c-18.56,0-33.61-15.05-33.61-33.61c0-18.55,15.04-33.6,33.61-33.6c18.56,0,33.61,15.05,33.61,33.6
				C1170.48,943.29,1155.43,958.35,1136.87,958.35z"/>
			<path class="st2" d="M1204.12,924.74c0,37.14-30.11,67.24-67.25,67.24c-37.14,0-67.24-30.1-67.24-67.24
				c0-37.14,30.1-67.25,67.24-67.25C1174.01,857.49,1204.12,887.6,1204.12,924.74z"/>
			<path class="st3" d="M1170.48,924.74c0,18.56-15.05,33.61-33.61,33.61c-18.56,0-33.61-15.05-33.61-33.61
				c0-18.55,15.04-33.6,33.61-33.6C1155.43,891.13,1170.48,906.18,1170.48,924.74z"/>
			<path class="st4" d="M1136.87,1012.69"/>
			<path class="st4" d="M1136.87,836.79c46.74,0,87.95,37.56,87.95,87.95"/>
		</g>
		<g>
			<g>
				<polygon class="st4" points="652.11,1019.32 710.69,850.94 689.53,843.57 637.51,1014.25 637.51,1051.22 				"/>
				<polygon class="st4" points="777.06,1051.22 777.81,1019.32 728.06,843.57 706.9,850.94 				"/>
			</g>
			<path class="st2" d="M733.73,852.63c0,13.77-11.16,24.93-24.93,24.93c-13.77,0-24.93-11.17-24.93-24.93
				c0-13.76,11.16-24.92,24.93-24.92C722.57,827.71,733.73,838.87,733.73,852.63z"/>
			<path class="st4" d="M777.82,889.58c-18.43,17.04-43.08,27.46-70.16,27.46c-27.08,0-51.73-10.42-70.15-27.46"/>
			<line class="st4" x1="708.8" y1="897.12" x2="708.8" y2="928.79"/>
			<path class="st2" d="M708.8,827.71c2.92,0,5.72,0.5,8.32,1.43v-22.57c0-4.59-3.72-8.32-8.32-8.32c-4.59,0-8.31,3.73-8.31,8.32
				v22.57C703.08,828.21,705.88,827.71,708.8,827.71z"/>
			<path class="st2" d="M671.67,985.7c0,9.42-7.65,17.07-17.08,17.07c-9.44,0-17.09-7.64-17.09-17.07c0-9.44,7.65-17.09,17.09-17.09
				C664.02,968.61,671.67,976.26,671.67,985.7z"/>
		</g>
		<g>
			<path class="st6" d="M1176.22,140.66v-9.52c1.11-13.34,0.2-19.38,8.04-23.38c26-15.96,43.35-44.64,43.35-77.38
				c0-50.11-40.62-90.74-90.73-90.74c-50.11,0-90.73,40.63-90.73,90.74c0,32.74,17.34,61.42,43.34,77.38
				c8.96,6.71,6.93,10.04,8.04,23.38v9.52H1176.22z"/>
			<rect x="1097.54" y="140.66" class="st6" width="78.72" height="32.19"/>
			<line class="st6" x1="1097.54" y1="151.89" x2="1176.26" y2="151.89"/>
			<line class="st6" x1="1097.54" y1="162.42" x2="1176.26" y2="162.42"/>
			<path class="st6" d="M1113.59,172.85c1.67,11.38,11.45,20.14,23.3,20.14c11.85,0,21.64-8.75,23.3-20.14H1113.59z"/>
			<path class="st4" d="M1200.15,40.06l0.57-17.54l-10.64-0.34c-0.64-3.64-1.65-7.16-2.98-10.52l9.75-5.34l-8.45-15.4l-10.37,5.69
				c-2.24-2.63-4.72-5.04-7.41-7.19l6.2-10.47L1161.72-30l-6.39,10.8c-3.1-1.13-6.34-1.97-9.68-2.52v-12.68h-17.55v12.68
				c-2.54,0.42-5.01,1-7.42,1.74l-5.9-11.11l-15.5,8.24l5.73,10.8c-2.5,1.82-4.83,3.86-6.98,6.09l-10.08-6.42l-9.43,14.79l9.5,6.06
				c-1.54,3.25-2.76,6.66-3.63,10.22l-10.79-0.35l-0.57,17.55l10.01,0.32c0.32,3.91,1.06,7.7,2.18,11.33l-8.32,4.56l8.44,15.38
				l7.73-4.23c2.38,3.29,5.11,6.3,8.16,8.96l-4.29,7.25l15.1,8.93l4.07-6.87c3.8,1.58,7.82,2.73,12,3.41v7.87h17.55v-7.87
				c3.3-0.53,6.51-1.37,9.59-2.48l3.74,7.03l15.49-8.24l-3.91-7.37c2.9-2.32,5.55-4.91,7.92-7.76l7.32,4.67l9.43-14.8l-7.88-5.02
				c1.37-3.57,2.38-7.33,2.97-11.22L1200.15,40.06z"/>
			<path class="st2" d="M1136.87-9.17c-21.19,0-38.37,17.18-38.37,38.37s17.18,38.37,38.37,38.37c21.2,0,38.37-17.18,38.37-38.37
				S1158.07-9.17,1136.87-9.17z M1136.87,55.47c-14.51,0-26.27-11.76-26.27-26.27c0-14.51,11.76-26.28,26.27-26.28
				c14.51,0,26.27,11.77,26.27,26.28C1163.15,43.71,1151.38,55.47,1136.87,55.47z"/>
			<path class="st4" d="M1213.36,30.46c0,40.99-33.23,74.23-74.23,74.23"/>
		</g>
		<g>
			<path class="st6" d="M390.22,1244.56H166.68c-8.06,0-14.59,6.53-14.59,14.6v155.09c0,8.07,6.53,14.6,14.59,14.6h151.88
				l-2.97,34.48l40.42-34.48h34.21c8.06,0,14.6-6.53,14.6-14.6v-155.09C404.82,1251.09,398.28,1244.56,390.22,1244.56z"/>
			<path class="st2" d="M324.48,1332.73c0-1.37-0.07-2.71-0.19-4.04l9.01-2.37l-4.04-15.43l-9.19,2.39c-1.93-4.03-4.46-7.74-7.45-11
				l5.89-7.65l-12.63-9.74l-5.97,7.73c-3.86-1.97-8.04-3.39-12.45-4.18v-9.84H271.5v9.84c-4.19,0.75-8.17,2.07-11.87,3.89
				l-5.86-7.82l-12.78,9.57l5.8,7.74c-2.2,2.32-4.17,4.89-5.84,7.64l-8.96-3.3l-5.52,14.98l8.79,3.24
				c-0.51,2.71-0.79,5.49-0.79,8.34c0,0.99,0.05,1.96,0.11,2.93l-8.93,2.34l4.04,15.44l8.73-2.29c1.89,4.21,4.41,8.08,7.44,11.49
				l-5.43,7.03l12.63,9.75l5.34-6.93c4.04,2.14,8.43,3.68,13.08,4.51v8.7h15.96v-8.7c4.42-0.79,8.61-2.23,12.49-4.2l5.25,7
				l12.77-9.57l-5.32-7.1c2.25-2.46,4.23-5.16,5.9-8.08l8.42,3.1l5.51-14.97l-8.59-3.17
				C324.27,1337.64,324.48,1335.21,324.48,1332.73z M279.48,1362.81c-16.92,0-30.64-13.72-30.64-30.65
				c0-16.93,13.72-30.64,30.64-30.64c16.93,0,30.64,13.71,30.64,30.64C310.12,1349.08,296.4,1362.81,279.48,1362.81z"/>
			<path class="st4" d="M171.74,1325.37v64.53c0,0,1.28,11.11,11.49,13.66h71.5"/>
		</g>
		<g>
			<rect x="1088.05" y="557.76" class="st2" width="111.79" height="42.96"/>
			<path class="st3" d="M1068.64,443.21c0,0-12.81,11.75-8.11,30.8c0,0,10.29,31.82,36.43,56.5v27.24h95.1v-25.54l12.95-11.23
				c0,0,9.3-7.16,9.24-19.58v-70.54h-50.28"/>
			<g>
				<path class="st2" d="M1221.12,420.25c-0.24-0.02-0.47-0.04-0.73-0.04h-164.63c-1.05,0-1.99,0.1-2.88,0.27
					c-7.07-17.67-24.34-30.15-44.53-30.15c-19.7,0-36.6,11.88-43.99,28.86h43.99v38.2h-43.99c7.39,16.98,24.29,28.86,43.99,28.86
					c20.19,0,37.46-12.49,44.53-30.15c0.89,0.17,1.84,0.28,2.88,0.28h164.63c0.15,0,0.27-0.03,0.42-0.03
					c7.02,17.74,24.34,30.31,44.58,30.31c19.69,0,36.61-11.88,43.99-28.86h-43.99v-38.21h43.99c-7.39-16.98-24.3-28.85-43.99-28.85
					C1245.45,390.74,1228.34,402.92,1221.12,420.25z"/>
				<path class="st3" d="M1208.97,433.77c2.6,0,4.72,2.12,4.72,4.72l0,0c0,2.61-2.12,4.72-4.72,4.72h-144.19
					c-2.62,0-4.73-2.11-4.73-4.72l0,0c0-2.61,2.11-4.72,4.73-4.72H1208.97z"/>
				<path class="st4" d="M1010.76,402.97c19.39,0.45,34.73,16.54,34.28,35.93"/>
				<path class="st4" d="M1272.24,474.01c-19.38-0.46-34.73-16.54-34.28-35.93"/>
			</g>
			<path class="st3" d="M1125.81,438.04c0,7.97-6.46,14.42-14.42,14.42l0,0c-7.97,0-14.43-6.45-14.43-14.42v-27
				c0-7.97,6.46-14.42,14.43-14.42l0,0c7.96,0,14.42,6.45,14.42,14.42V438.04z"/>
			<path class="st3" d="M1156.58,436.01c0,7.96-6.46,14.42-14.42,14.42l0,0c-7.96,0-14.43-6.46-14.43-14.42v-31.25
				c0-7.97,6.46-14.42,14.43-14.42l0,0c7.96,0,14.42,6.45,14.42,14.42V436.01z"/>
			<path class="st3" d="M1185.41,430.83c0,7.96-6.45,14.42-14.42,14.42l0,0c-7.96,0-14.41-6.46-14.41-14.42v-19.79
				c0-7.97,6.45-14.42,14.41-14.42l0,0c7.96,0,14.42,6.45,14.42,14.42V430.83z"/>
			<path class="st3" d="M1214.25,430.87c0,7.96-6.46,14.42-14.41,14.42l0,0c-7.96,0-14.43-6.46-14.43-14.42v-13.48
				c0-7.97,6.46-14.42,14.43-14.42l0,0c7.96,0,14.41,6.45,14.41,14.42V430.87z"/>
			<path class="st7" d="M1126.45,505.83c5.46-43.41-30.76-53.37-30.76-53.37h41.89c18.99-4.09,18.99-27.92,18.99-27.92h-65.8
				l-22.13,18.67c0,0-11.96,13.03-8.11,30.8c0,0,9.01,29.27,36.43,56.5"/>
			<path class="st3" d="M1190.2,579.24c0,4.23-3.44,7.66-7.67,7.66c-4.23,0-7.66-3.43-7.66-7.66c0-4.22,3.43-7.66,7.66-7.66
				C1186.76,571.58,1190.2,575.01,1190.2,579.24z"/>
		</g>
		<g>
			<g>
				<path class="st4" d="M697.08,578.09c4.03,27.18-59.05,28.01-64.39-13.09c-25.95,7.27-43.87-17.78-31.32-39.92
					c-15.05-10.27-14.77-40.23,0.91-49.21c-11.98-12.77,2.55-48.52,31.53-42.14c-7.91-28.71,33.99-52.11,63.44-29.23L697.08,578.09z
					"/>
				<path class="st4" d="M632.93,427.35c2.16,12.74,13.37,22.61,26.17,24.9"/>
				<path class="st4" d="M659.1,417.77c-2.96,19.04,28.99,27.03,37.67,14.68"/>
				<path class="st4" d="M643.14,445.87c-0.05,6.68-8.99,15.24-14.04,17.23"/>
				<path class="st4" d="M623.35,484.81c7.87,3.98,8.05,15.43,16.57,17.97c8.93,2.66,13.79-7.21,17.38-14.05
					c5.46-10.45,13.59-14.68,25.41-12.82c3.86,0.61,10.55,3.31,12.78,4.44"/>
				<path class="st4" d="M614.41,484.17c6.12,7.59,15.93-3.62,9.58-10.21"/>
				<path class="st4" d="M697.4,523.76c-8.38-8.36-21.44,1.07-24.25,10.12c-3.32,10.66,6.77,19.34,3.22,29.72
					c-2.15,6.3-7.1,9.08-13.44,8.03"/>
				<path class="st4" d="M632.93,570.35c-9.84-25.75,38.94-18.5,17.87-57.45"/>
				<path class="st4" d="M601.01,526.3c3.5-5.72,11.84-6.14,17.92-5.77c5.5,0.34,11.68,4.48,14,5.13"/>
			</g>
			<g>
				<path class="st4" d="M824.11,512.91l0.92-28.09L808,484.26c-1.03-5.83-2.64-11.46-4.78-16.83l15.62-8.56l-13.52-24.64
					l-16.61,9.11c-3.58-4.2-7.55-8.06-11.86-11.52l9.92-16.77l-24.19-14.32l-10.23,17.29c-4.96-1.8-10.15-3.16-15.49-4.04V393.7
					h-13.89v203.66h13.89v-12.58c5.29-0.86,10.42-2.2,15.34-3.98l5.99,11.25l24.81-13.18l-6.27-11.81
					c4.63-3.71,8.89-7.86,12.68-12.42l11.72,7.47l15.11-23.71l-12.63-8.04c2.2-5.71,3.82-11.73,4.76-17.96L824.11,512.91z"/>
				<path class="st2" d="M722.96,434.09v19.38c23.16,0.09,41.91,18.88,41.91,42.06c0,23.18-18.74,41.98-41.91,42.06v19.37
					c33.85-0.09,61.28-27.56,61.28-61.43C784.24,461.65,756.81,434.18,722.96,434.09z"/>
			</g>
		</g>
		<g>
			<path class="st2" d="M1580.33,553.32c0.01-0.2,0.03-0.37,0.03-0.57V440.2c0-0.82-0.08-1.56-0.22-2.26
				c13.79-5.52,23.53-18.98,23.53-34.75c0-15.37-9.26-28.57-22.52-34.34v34.34h-29.82v-34.34c-13.25,5.77-22.53,18.97-22.53,34.34
				c0,15.77,9.75,29.24,23.54,34.75c-0.13,0.7-0.21,1.43-0.21,2.26v112.55c0,0.11,0.02,0.21,0.02,0.32
				c-13.86,5.48-23.66,18.99-23.66,34.79c0,15.38,9.27,28.59,22.52,34.34v-34.34h29.81v34.34c13.25-5.75,22.53-18.96,22.53-34.34
				C1603.36,572.3,1593.85,558.96,1580.33,553.32z"/>
			<path class="st3" d="M1570.59,543.83c0,2.04-2.02,3.69-4.51,3.69l0,0c-2.49,0-4.5-1.65-4.5-3.69v-96.6c0-2.04,2.01-3.69,4.5-3.69
				l0,0c2.49,0,4.51,1.65,4.51,3.69V543.83z"/>
			<path class="st4" d="M1593.82,405.06c-0.36,15.13-12.92,27.11-28.05,26.75"/>
			<path class="st4" d="M1538.36,593.22c0.35-15.13,12.91-27.11,28.04-26.76"/>
		</g>
		<g>
			<rect x="-243.07" y="-27.57" class="st2" width="184.63" height="220.56"/>
			<rect x="-228.4" y="-27.57" class="st3" width="155.3" height="205.78"/>
			<g>
				<line class="st2" x1="-210.09" y1="54.95" x2="-91.41" y2="54.95"/>
				<line class="st2" x1="-210.09" y1="94.51" x2="-182.32" y2="94.51"/>
				<line class="st2" x1="-171.38" y1="94.51" x2="-91.41" y2="94.51"/>
				<line class="st2" x1="-210.09" y1="73.47" x2="-164.64" y2="73.47"/>
				<line class="st2" x1="-152.01" y1="73.47" x2="-91.41" y2="73.47"/>
				<line class="st2" x1="-210.09" y1="114.62" x2="-91.41" y2="114.62"/>
				<line class="st2" x1="-210.09" y1="154.18" x2="-182.32" y2="154.18"/>
				<line class="st2" x1="-171.38" y1="154.18" x2="-91.41" y2="154.18"/>
				<line class="st2" x1="-210.09" y1="133.14" x2="-164.64" y2="133.14"/>
				<line class="st2" x1="-152.01" y1="133.14" x2="-91.41" y2="133.14"/>
			</g>
			<path class="st2" d="M-128.91-37.64c0.01-0.27,0.04-0.55,0.04-0.83c0-12.09-9.8-21.89-21.89-21.89
				c-12.09,0-21.89,9.81-21.89,21.89c0,0.28,0.04,0.56,0.05,0.83h-15.19v23.56h74.06v-23.56H-128.91z"/>
			<path class="st4" d="M-129.03,20.58c0-0.66-0.03-1.31-0.09-1.95l4.35-1.15l-1.95-7.45l-4.43,1.16c-0.93-1.95-2.14-3.73-3.6-5.31
				l2.85-3.68l-6.1-4.71l-2.88,3.74c-1.87-0.96-3.88-1.64-6.01-2.02v-4.74h-7.7v4.74c-2.02,0.36-3.95,1-5.73,1.88l-2.84-3.78
				l-6.17,4.63l2.81,3.73c-1.07,1.12-2.02,2.36-2.82,3.7l-4.33-1.59l-2.66,7.22l4.25,1.56c-0.25,1.3-0.39,2.66-0.39,4.03
				c0,0.48,0.03,0.95,0.05,1.42l-4.31,1.13l1.95,7.45l4.21-1.11c0.91,2.04,2.13,3.91,3.59,5.55l-2.63,3.4l6.1,4.7l2.59-3.34
				c1.93,1.03,4.06,1.77,6.31,2.17v4.2h7.7v-4.2c2.13-0.38,4.16-1.07,6.03-2.02l2.53,3.38l6.17-4.62l-2.57-3.43
				c1.1-1.18,2.04-2.5,2.85-3.9l4.07,1.49l2.66-7.23l-4.15-1.54C-129.13,22.95-129.03,21.77-129.03,20.58z M-150.76,30.36
				c-5.56,0-10.06-4.5-10.06-10.06s4.5-10.05,10.06-10.05c5.55,0,10.06,4.49,10.06,10.05S-145.2,30.36-150.76,30.36z"/>
		</g>
		<g>
			<path class="st2" d="M382.48,67.64c0-3.16-0.16-6.28-0.44-9.36l20.84-5.46l-9.35-35.69l-21.24,5.55
				c-4.48-9.33-10.31-17.88-17.24-25.42L368.7-20.4l-29.21-22.54l-13.8,17.89c-8.94-4.56-18.61-7.86-28.79-9.68v-22.74H260v22.74
				c-9.67,1.73-18.89,4.79-27.45,9l-13.55-18.08L189.47-21.7l13.4,17.88c-5.09,5.38-9.63,11.3-13.49,17.68l-20.72-7.63l-12.75,34.62
				l20.33,7.49c-1.18,6.25-1.83,12.69-1.83,19.3c0,2.27,0.11,4.54,0.25,6.78l-20.64,5.4l9.35,35.7l20.18-5.28
				c4.38,9.73,10.2,18.68,17.2,26.55l-12.54,16.26l29.21,22.55l12.36-16c9.32,4.94,19.5,8.49,30.23,10.41v20.12h36.9v-20.12
				c10.22-1.83,19.92-5.14,28.86-9.72l12.13,16.2l29.54-22.13l-12.3-16.41c5.21-5.68,9.78-11.96,13.64-18.7l19.48,7.18l12.74-34.63
				l-19.89-7.32C382.01,78.98,382.48,73.36,382.48,67.64z M278.45,137.16c-39.13,0-70.84-31.72-70.84-70.84
				c0-39.13,31.71-70.84,70.84-70.84c39.12,0,70.84,31.71,70.84,70.84C349.29,105.43,317.57,137.16,278.45,137.16z"/>
			<path class="st4" d="M193.94,66.32c0-46.67,37.83-84.51,84.51-84.51"/>
		</g>
		<g>
			<path class="st2" d="M707.66,74.97l24.53,0V89.9h-8.27v93.66c0,0,0,12.71-16.26,12.71c-16.27,0-16.27-12.71-16.27-12.71V89.9
				h-8.26V74.97L707.66,74.97z"/>
			<path class="st3" d="M717.98-63.64h-10.59h-10.59c0,0-1.51,18.27,5.65,25.1V74.97h9.88V-38.54
				C719.49-45.37,717.98-63.64,717.98-63.64z"/>
			<g>
				<line class="st4" x1="712.87" y1="92.87" x2="712.87" y2="178.2"/>
				<line class="st4" x1="702.45" y1="92.95" x2="702.45" y2="178.29"/>
			</g>
		</g>
		<g>
			<polygon class="st2" points="-136.07,466.54 -141.19,404.49 -150.76,404.49 -160.33,404.49 -165.44,466.54 			"/>
			<path class="st4" d="M-23.21,568.26c0-41.14-17.25-82.92-50.91-110.34c-8.33-6.79-17.54-12.41-27.31-16.78l-2.8-18.07
				c-12.94-5.98-25.17-8.99-36.25-10.16l4.41,53.63h-29.38l4.43-53.8c-22.2,1.99-36.27,10.33-36.27,10.33l-3.23,18.08
				c-33.67,15.46-58.12,45.39-69.63,78.42c-5.48,15.7-8.17,32.2-8.17,48.69H-23.21"/>
			<line class="st4" x1="-104.23" y1="423.07" x2="-94.48" y2="486.06"/>
			<line class="st4" x1="-208.53" y1="486.06" x2="-197.28" y2="423.07"/>
			<path class="st4" d="M-248.54,509.54c0,0-12.92,22.68-11.92,40.01h79.77"/>
			<path class="st4" d="M-21.78,568.26h-128.98h-128.8c0,0-11.62,0.44-11.51,18.31h140.32h140.31
				C-10.33,568.7-21.78,568.26-21.78,568.26z"/>
		</g>
		<g>
			<path class="st2" d="M1658.65,989.95c0,12.63-10.23,22.87-22.87,22.87h-139.38c-12.63,0-22.87-10.23-22.87-22.87V859.51
				c0-12.63,10.23-22.87,22.87-22.87h139.38c12.64,0,22.87,10.23,22.87,22.87V989.95z"/>
			<path class="st3" d="M1622.74,964.65c0,7.74-6.27,14-14,14h-85.3c-7.74,0-14.01-6.26-14.01-14v-79.83c0-7.73,6.27-14,14.01-14
				h85.3c7.73,0,14,6.27,14,14V964.65z"/>
			<path class="st2" d="M1598.51,925.14c0-0.97-0.05-1.95-0.13-2.91l6.49-1.7l-2.91-11.13l-6.62,1.75
				c-1.39-2.91-3.21-5.58-5.36-7.93l4.25-5.5l-9.1-7.03l-4.31,5.58c-2.77-1.43-5.79-2.45-8.96-3.02v-7.08h-11.5v7.08
				c-3.02,0.54-5.89,1.49-8.56,2.8l-4.22-5.63l-9.21,6.89l4.18,5.57c-1.59,1.68-3.01,3.52-4.21,5.52l-6.46-2.38l-3.97,10.8
				l6.34,2.33c-0.37,1.95-0.56,3.96-0.56,6c0,0.71,0.02,1.41,0.07,2.12l-6.43,1.68l2.91,11.13l6.29-1.65
				c1.37,3.04,3.18,5.83,5.37,8.27l-3.92,5.07l9.11,7.02l3.85-4.99c2.91,1.54,6.08,2.65,9.43,3.25v6.27h11.5v-6.27
				c3.18-0.58,6.21-1.61,8.99-3.04l3.78,5.05l9.21-6.9l-3.83-5.12c1.63-1.77,3.05-3.73,4.25-5.82l6.07,2.23l3.97-10.78l-6.2-2.28
				C1598.36,928.67,1598.51,926.93,1598.51,925.14z M1566.08,946.81c-12.19,0-22.07-9.88-22.07-22.08c0-12.2,9.88-22.08,22.07-22.08
				c12.2,0,22.08,9.88,22.08,22.08C1588.16,936.93,1578.28,946.81,1566.08,946.81z"/>
			<g>
				<line class="st2" x1="1500.96" y1="806.74" x2="1500.96" y2="836.64"/>
				<line class="st2" x1="1522.67" y1="806.74" x2="1522.67" y2="836.64"/>
				<line class="st2" x1="1544.38" y1="806.74" x2="1544.38" y2="836.64"/>
				<line class="st2" x1="1566.08" y1="806.74" x2="1566.08" y2="836.64"/>
				<line class="st2" x1="1587.79" y1="806.74" x2="1587.79" y2="836.64"/>
				<line class="st2" x1="1609.5" y1="806.74" x2="1609.5" y2="836.64"/>
				<line class="st2" x1="1631.2" y1="806.74" x2="1631.2" y2="836.64"/>
			</g>
			<g>
				<line class="st2" x1="1688.56" y1="859.61" x2="1658.65" y2="859.61"/>
				<line class="st2" x1="1688.56" y1="881.32" x2="1658.65" y2="881.32"/>
				<line class="st2" x1="1688.56" y1="903.03" x2="1658.65" y2="903.03"/>
				<line class="st2" x1="1688.56" y1="924.74" x2="1658.65" y2="924.74"/>
				<line class="st2" x1="1688.56" y1="946.44" x2="1658.65" y2="946.44"/>
				<line class="st2" x1="1688.56" y1="968.14" x2="1658.65" y2="968.14"/>
				<line class="st2" x1="1688.56" y1="989.85" x2="1658.65" y2="989.85"/>
			</g>
			<g>
				<line class="st2" x1="1631.2" y1="1042.74" x2="1631.2" y2="1012.82"/>
				<line class="st2" x1="1609.5" y1="1042.74" x2="1609.5" y2="1012.82"/>
				<line class="st2" x1="1587.79" y1="1042.74" x2="1587.79" y2="1012.82"/>
				<line class="st2" x1="1566.08" y1="1042.74" x2="1566.08" y2="1012.82"/>
				<line class="st2" x1="1544.38" y1="1042.74" x2="1544.38" y2="1012.82"/>
				<line class="st2" x1="1522.67" y1="1042.74" x2="1522.67" y2="1012.82"/>
				<line class="st2" x1="1500.96" y1="1042.74" x2="1500.96" y2="1012.82"/>
			</g>
			<g>
				<line class="st2" x1="1443.61" y1="989.85" x2="1473.52" y2="989.85"/>
				<line class="st2" x1="1443.61" y1="968.14" x2="1473.52" y2="968.14"/>
				<line class="st2" x1="1443.61" y1="946.44" x2="1473.52" y2="946.44"/>
				<line class="st2" x1="1443.61" y1="924.74" x2="1473.52" y2="924.74"/>
				<line class="st2" x1="1443.61" y1="903.03" x2="1473.52" y2="903.03"/>
				<line class="st2" x1="1443.61" y1="881.32" x2="1473.52" y2="881.32"/>
				<line class="st2" x1="1443.61" y1="859.61" x2="1473.52" y2="859.61"/>
			</g>
			<g>
				<path class="st4" d="M1503.22,861.84c0,3.74-3.04,6.77-6.77,6.77c-3.74,0-6.77-3.03-6.77-6.77c0-3.75,3.03-6.77,6.77-6.77
					C1500.18,855.06,1503.22,858.09,1503.22,861.84z"/>
				<path class="st4" d="M1503.22,987.64c0,3.73-3.04,6.77-6.77,6.77c-3.74,0-6.77-3.04-6.77-6.77c0-3.74,3.03-6.77,6.77-6.77
					C1500.18,980.87,1503.22,983.9,1503.22,987.64z"/>
			</g>
			<g>
				<path class="st4" d="M1644.75,861.84c0,3.74-3.04,6.77-6.77,6.77s-6.77-3.03-6.77-6.77c0-3.75,3.04-6.77,6.77-6.77
					S1644.75,858.09,1644.75,861.84z"/>
				<path class="st4" d="M1644.75,987.64c0,3.73-3.04,6.77-6.77,6.77s-6.77-3.04-6.77-6.77c0-3.74,3.04-6.77,6.77-6.77
					S1644.75,983.9,1644.75,987.64z"/>
			</g>
		</g>
		<g>
			<g>
				<path class="st2" d="M1424.11,1456.18h204.45v-204.46L1424.11,1456.18z M1590.33,1418.17h-76.05l76.05-76.05V1418.17z"/>
				<g>
					<line class="st2" x1="1449.16" y1="1445.56" x2="1449.16" y2="1456.18"/>
					<line class="st2" x1="1462.04" y1="1445.56" x2="1462.04" y2="1456.18"/>
					<line class="st2" x1="1474.92" y1="1445.56" x2="1474.92" y2="1456.18"/>
					<line class="st2" x1="1487.8" y1="1445.56" x2="1487.8" y2="1456.18"/>
					<line class="st2" x1="1500.68" y1="1445.56" x2="1500.68" y2="1456.18"/>
					<line class="st2" x1="1513.56" y1="1445.56" x2="1513.56" y2="1456.18"/>
					<line class="st2" x1="1526.44" y1="1445.56" x2="1526.44" y2="1456.18"/>
					<line class="st2" x1="1539.32" y1="1445.56" x2="1539.32" y2="1456.18"/>
					<line class="st2" x1="1552.2" y1="1445.56" x2="1552.2" y2="1456.18"/>
					<line class="st2" x1="1565.08" y1="1445.56" x2="1565.08" y2="1456.18"/>
					<line class="st2" x1="1577.96" y1="1445.56" x2="1577.96" y2="1456.18"/>
					<line class="st2" x1="1590.84" y1="1445.56" x2="1590.84" y2="1456.18"/>
					<line class="st2" x1="1603.72" y1="1445.56" x2="1603.72" y2="1456.18"/>
					<line class="st2" x1="1616.6" y1="1445.56" x2="1616.6" y2="1456.18"/>
				</g>
			</g>
			<g>
				<path class="st3" d="M1708.06,1415.7c0,3.9-3.16,7.07-7.07,7.07h-81.7c-3.91,0-7.08-3.17-7.08-7.07v-122.08
					c0-3.91,3.17-7.08,7.08-7.08h81.7c3.91,0,7.07,3.17,7.07,7.08V1415.7z"/>
				<g>
					<rect x="1623.05" y="1302.94" class="st2" width="74.15" height="16.47"/>
					<g>
						<g>
							<rect x="1629.88" y="1333.62" class="st2" width="14.04" height="14.03"/>
							<rect x="1653.11" y="1333.62" class="st2" width="14.03" height="14.03"/>
							<rect x="1676.34" y="1333.62" class="st2" width="14.03" height="14.03"/>
						</g>
						<g>
							<rect x="1629.88" y="1357.2" class="st2" width="14.04" height="14.03"/>
							<rect x="1653.11" y="1357.2" class="st2" width="14.03" height="14.03"/>
							<rect x="1676.34" y="1357.2" class="st2" width="14.03" height="14.03"/>
						</g>
						<g>
							<rect x="1629.88" y="1380.79" class="st2" width="14.04" height="14.03"/>
							<rect x="1653.11" y="1380.79" class="st2" width="14.03" height="14.03"/>
							<rect x="1676.34" y="1380.79" class="st2" width="14.03" height="14.03"/>
						</g>
					</g>
				</g>
				<path class="st4" d="M1699.1,1392.23v15.04c0,3.91-3.17,7.08-7.08,7.08h-23.41"/>
			</g>
			<g>
				<polygon class="st8" points="1448.58,1398.8 1435.43,1385.65 1534.76,1286.33 1547.9,1299.49 				"/>
				<polygon class="st6" points="1547.9,1299.49 1534.76,1286.33 1541.72,1279.36 1554.87,1292.51 				"/>
				<path class="st6" d="M1554.87,1292.51l3.78-3.79c3.63-3.63,3.63-9.51,0-13.14c-3.63-3.63-9.52-3.63-13.14,0l-3.79,3.79
					L1554.87,1292.51z"/>
				<polygon class="st6" points="1435.43,1385.65 1448.58,1398.8 1426.27,1407.96 				"/>
				<polygon class="st6" points="1430.79,1396.95 1426.27,1407.96 1437.29,1403.44 				"/>
				<g>
					<line class="st6" x1="1541.33" y1="1292.91" x2="1442.01" y2="1392.23"/>
				</g>
			</g>
		</g>
	</g>
</g>
<g id="Layer_3">
	<g>
		<rect x="192.23" y="183.45" class="st9" width="1032.87" height="1233.87"/>
		<rect x="274.31" y="183.45" class="st10" width="868.78" height="1151.18"/>
		<g>
			<line class="st11" x1="376.73" y1="645.11" x2="1040.66" y2="645.11"/>
			<line class="st11" x1="376.73" y1="866.42" x2="532.1" y2="866.42"/>
			<line class="st11" x1="593.29" y1="866.42" x2="1040.66" y2="866.42"/>
			<line class="st11" x1="376.73" y1="748.7" x2="631.01" y2="748.7"/>
			<line class="st11" x1="701.64" y1="748.7" x2="1040.66" y2="748.7"/>
			<line class="st11" x1="376.73" y1="978.91" x2="1040.66" y2="978.91"/>
			<line class="st11" x1="376.73" y1="1200.24" x2="532.1" y2="1200.24"/>
			<line class="st11" x1="593.29" y1="1200.24" x2="1040.66" y2="1200.24"/>
			<line class="st11" x1="376.73" y1="1082.52" x2="631.01" y2="1082.52"/>
			<line class="st11" x1="701.64" y1="1082.52" x2="1040.66" y2="1082.52"/>
		</g>
		<path class="st12" d="M830.87,127.14c0.04-1.51,0.24-3.1,0.24-4.65C831.11,54.87,776.29,0,708.67,0
			c-67.63,0-122.46,54.87-122.46,122.48c0,1.55,0.2,3.15,0.28,4.65h-84.96v131.82h414.33V127.14H830.87z"/>
		<path class="st13" d="M830.22,452.79c0-3.72-0.18-7.32-0.5-10.88l24.32-6.42l-10.93-41.69l-24.8,6.47
			c-5.2-10.88-12-20.87-20.13-29.72l15.95-20.59L780,323.57l-16.13,20.93c-10.47-5.35-21.72-9.2-33.63-11.32v-26.53h-43.09v26.53
			c-11.32,1.99-22.09,5.59-32.08,10.51l-15.86-21.15l-34.51,25.9l15.71,20.87c-6.01,6.27-11.3,13.18-15.8,20.67l-24.21-8.89
			l-14.9,40.41l23.78,8.74c-1.42,7.3-2.16,14.86-2.16,22.55c0,2.67,0.15,5.29,0.28,7.93l-24.1,6.32l10.93,41.7l23.58-6.18
			c5.11,11.38,11.91,21.85,20.08,31.03l-14.68,19.01l34.13,26.31l14.51-18.68c10.82,5.77,22.73,9.9,35.31,12.15v23.49h43.09v-23.49
			c11.91-2.1,23.25-5.99,33.72-11.3l14.16,18.9l34.51-25.85l-14.38-19.21c6.14-6.62,11.43-13.99,15.93-21.81l22.79,8.35l14.88-40.43
			l-23.23-8.59C829.65,466.05,830.22,459.45,830.22,452.79z M708.67,507.51c-31.1,0-56.29-25.17-56.29-56.27s25.2-56.23,56.29-56.23
			c31.07,0,56.27,25.13,56.27,56.23S739.75,507.51,708.67,507.51z"/>
	</g>
</g>
</svg>
