<svg xmlns="http://www.w3.org/2000/svg" width="70" height="70" viewBox="0 0 70 70" style="width: 100%; height: 100%;"><desc>Made with illustrio</desc>

<g class="base"><g fill="none" fill-rule="evenodd" stroke="none" class="main-fill">


  </g><g fill="none" transform="translate(18.455 26.09)" stroke="none" class="main-fill">
      <polygon points="31.054 0 9.673 0 20.364 8.552" fill="none" stroke="none" class="main-fill"></polygon>
      <path d="M21.1584545 11.1758182C20.9261818 11.3616364 20.6449091 11.4545455 20.3636364 11.4545455 20.0823636 11.4545455 19.8010909 11.3616364 19.5688182 11.1758182L7.63636364 1.62972727 7.63636364 16.5454545C7.63636364 17.248 8.20654545 17.8181818 8.90909091 17.8181818L31.8181818 17.8181818C32.5207273 17.8181818 33.0909091 17.248 33.0909091 16.5454545L33.0909091 1.62972727 21.1584545 11.1758182 21.1584545 11.1758182zM5.09090909 2.54545455L2.54545455 2.54545455C1.84290909 2.54545455 1.27272727 3.11563636 1.27272727 3.81818182 1.27272727 4.52072727 1.84290909 5.09090909 2.54545455 5.09090909L5.09090909 5.09090909C5.79345455 5.09090909 6.36363636 4.52072727 6.36363636 3.81818182 6.36363636 3.11563636 5.79345455 2.54545455 5.09090909 2.54545455L5.09090909 2.54545455zM5.09090909 7.63636364L1.27272727 7.63636364C.570181818 7.63636364 0 8.20654545 0 8.90909091 0 9.61163636.570181818 10.1818182 1.27272727 10.1818182L5.09090909 10.1818182C5.79345455 10.1818182 6.36363636 9.61163636 6.36363636 8.90909091 6.36363636 8.20654545 5.79345455 7.63636364 5.09090909 7.63636364L5.09090909 7.63636364zM5.09090909 12.7272727L3.81818182 12.7272727C3.11563636 12.7272727 2.54545455 13.2974545 2.54545455 14 2.54545455 14.7025455 3.11563636 15.2727273 3.81818182 15.2727273L5.09090909 15.2727273C5.79345455 15.2727273 6.36363636 14.7025455 6.36363636 14 6.36363636 13.2974545 5.79345455 12.7272727 5.09090909 12.7272727L5.09090909 12.7272727z" fill="none" stroke="none" class="main-fill"></path>
    </g></g><style>
          .main-fill {fill: #000000;}
          .main-stroke {stroke: #000000;}
          .secondary-fill {fill: #000000;}
          .secondary-stroke {stroke: #000000;}

          .main-fill--darken {fill: #000000;}
          .main-stroke--darken {stroke: #000000;}
          .secondary-fill--darken {fill: #d9d9d9;}
          .secondary-stroke--darken {stroke: #d9d9d9;}

          .main-fill--darkener {fill: #000000;}
          .main-stroke--darkener {stroke: #000000;}
          .secondary-fill--darkener {fill: #bfbfbf;}
          .secondary-stroke--darkener {stroke: #bfbfbf;}
        </style></svg>
