<svg xmlns="http://www.w3.org/2000/svg" width="70" height="70" viewBox="0 0 70 70" style="width: 100%; height: 100%;"><desc>Made with illustrio</desc>

<g class="shadow"><g fill="none" fill-rule="evenodd" stroke="none">

    <path fill="none" d="M26.4,0.6 L3.6,0.6 C1.6,0.6 0,2.2 0,4.1 L0,4.8 L0,19.8 L0,20.5 C0,22.1 1.3,23.4 2.9,23.4 L3.6,23.4 L25.7,23.4 L26.4,23.4 C28.4,23.4 30,21.8 30,19.8 L30,4.1 C30,2.2 28.4,0.6 26.4,0.6 L26.4,0.6 Z M21.4,12.8 L12.6,19.3 C12.5,19.4 12.3,19.4 12.2,19.4 C12.1,19.4 12,19.4 11.9,19.3 C11.7,19.2 11.5,18.9 11.5,18.7 L11.5,5.7 C11.5,5.4 11.7,5.2 11.9,5.1 C12.1,5 12.4,5 12.6,5.2 L21.4,11.7 C21.6,11.8 21.7,12 21.7,12.3 C21.7,12.6 21.6,12.7 21.4,12.8 L21.4,12.8 Z" transform="translate(20 23)" stroke="none"></path>
  </g></g><g class="clone"><g fill="none" fill-rule="evenodd" stroke="none" style="stroke-width: 2;" class="main-fill main-stroke">


    <path fill="none" d="M26.4,0.6 L3.6,0.6 C1.6,0.6 0,2.2 0,4.1 L0,4.8 L0,19.8 L0,20.5 C0,22.1 1.3,23.4 2.9,23.4 L3.6,23.4 L25.7,23.4 L26.4,23.4 C28.4,23.4 30,21.8 30,19.8 L30,4.1 C30,2.2 28.4,0.6 26.4,0.6 L26.4,0.6 Z M21.4,12.8 L12.6,19.3 C12.5,19.4 12.3,19.4 12.2,19.4 C12.1,19.4 12,19.4 11.9,19.3 C11.7,19.2 11.5,18.9 11.5,18.7 L11.5,5.7 C11.5,5.4 11.7,5.2 11.9,5.1 C12.1,5 12.4,5 12.6,5.2 L21.4,11.7 C21.6,11.8 21.7,12 21.7,12.3 C21.7,12.6 21.6,12.7 21.4,12.8 L21.4,12.8 Z" transform="translate(20 23)" stroke="none" class="secondary-fill"></path>
  </g></g><style>
          .main-fill {fill: #ffffff;}
          .main-stroke {stroke: #ffffff;}
          .secondary-fill {fill: #000000;}
          .secondary-stroke {stroke: #000000;}

          .main-fill--darken {fill: #d9d9d9;}
          .main-stroke--darken {stroke: #d9d9d9;}
          .secondary-fill--darken {fill: #000000;}
          .secondary-stroke--darken {stroke: #000000;}

          .main-fill--darkener {fill: #bfbfbf;}
          .main-stroke--darkener {stroke: #bfbfbf;}
          .secondary-fill--darkener {fill: #000000;}
          .secondary-stroke--darkener {stroke: #000000;}
        </style></svg>
